<svg xmlns="http://www.w3.org/2000/svg" width="24" height="21.031" viewBox="0 0 24 21.031">
  <metadata><?xpacket begin="﻿" id="W5M0MpCehiHzreSzNTczkc9d"?>
<x:xmpmeta xmlns:x="adobe:ns:meta/" x:xmptk="Adobe XMP Core 5.6-c142 79.160924, 2017/07/13-01:06:39        ">
   <rdf:RDF xmlns:rdf="http://www.w3.org/1999/02/22-rdf-syntax-ns#">
      <rdf:Description rdf:about=""/>
   </rdf:RDF>
</x:xmpmeta>
                                                                                                    
                                                                                                    
                                                                                                    
                                                                                                    
                                                                                                    
                                                                                                    
                                                                                                    
                                                                                                    
                                                                                                    
                                                                                                    
                                                                                                    
                                                                                                    
                                                                                                    
                                                                                                    
                                                                                                    
                                                                                                    
                                                                                                    
                                                                                                    
                                                                                                    
                                                                                                    
                           
<?xpacket end="w"?></metadata>
<defs>
    <style>
      .cls-1 {
        fill: #333;
        fill-rule: evenodd;
      }
    </style>
  </defs>
  <path id="heart" class="cls-1" d="M1374.21,947.3L1363.98,958l-10.22-10.7a6.082,6.082,0,0,1,0-8.563,5.956,5.956,0,0,1,8.48,0l1.74,2.141,1.75-2.141a5.956,5.956,0,0,1,8.48,0A6.1,6.1,0,0,1,1374.21,947.3Zm-6.49-8.213-3.74,3.3-2.74-3.3a4.769,4.769,0,0,0-7.2,1c-1.13,1.712-1.44,3.84,0,5.3L1363.98,956l9.94-10.611a3.816,3.816,0,0,0,0-5.3C1372.48,938.62,1369.15,937.62,1367.72,939.085Z" transform="translate(-1352 -936.969)"/>
</svg>
